<svg xmlns="http://www.w3.org/2000/svg" width="19.583" height="14.838" viewBox="0 0 19.583 14.838">
  <path id="iconmonstr-twitter-1" d="M19.583,4a8.479,8.479,0,0,1-2.307.59,3.811,3.811,0,0,0,1.767-2.072,8.41,8.41,0,0,1-2.551.909,4.152,4.152,0,0,0-2.933-1.183,3.822,3.822,0,0,0-3.914,4.6,11.7,11.7,0,0,1-8.28-3.913,3.6,3.6,0,0,0,1.243,5A4.224,4.224,0,0,1,.787,7.466a3.818,3.818,0,0,0,3.222,3.72,4.31,4.31,0,0,1-1.815.064,4,4,0,0,0,3.753,2.6A8.5,8.5,0,0,1,0,15.4a11.98,11.98,0,0,0,6.159,1.683c7.459,0,11.674-5.874,11.419-11.143a7.9,7.9,0,0,0,2-1.939Z" transform="translate(0 -2.248)" fill="#fff"/>
</svg>
