<svg xmlns="http://www.w3.org/2000/svg" width="20.068" height="20.068" viewBox="0 0 20.068 20.068">
  <path id="iconmonstr-instagram-11" d="M10.034,1.809c2.679,0,3,.01,4.055.059,2.719.124,3.989,1.414,4.113,4.113.048,1.058.058,1.375.058,4.054s-.01,3-.058,4.054c-.125,2.7-1.391,3.989-4.113,4.113-1.059.048-1.375.059-4.055.059s-3-.01-4.054-.059c-2.726-.125-3.989-1.421-4.113-4.114-.048-1.058-.059-1.375-.059-4.054s.011-3,.059-4.054c.125-2.7,1.391-3.989,4.113-4.113,1.059-.048,1.375-.058,4.054-.058Zm0-1.809C7.309,0,6.968.012,5.9.06,2.253.227.228,2.249.061,5.9.012,6.968,0,7.309,0,10.034S.012,13.1.06,14.171C.227,17.815,2.249,19.84,5.9,20.007c1.071.048,1.412.06,4.137.06s3.067-.012,4.137-.06c3.641-.167,5.671-2.189,5.835-5.836.049-1.07.061-1.412.061-4.137s-.012-3.066-.06-4.136C19.844,2.257,17.819.228,14.172.061,13.1.012,12.759,0,10.034,0Zm0,4.881a5.153,5.153,0,1,0,5.152,5.152A5.153,5.153,0,0,0,10.034,4.881Zm0,8.5a3.345,3.345,0,1,1,3.345-3.345A3.344,3.344,0,0,1,10.034,13.378Zm5.356-9.9a1.2,1.2,0,1,0,1.2,1.2A1.2,1.2,0,0,0,15.39,3.474Z" transform="translate(0 0)" fill="#fff"/>
</svg>
