<svg xmlns="http://www.w3.org/2000/svg" width="19.28" height="19.28" viewBox="0 0 19.28 19.28">
  <path id="iconmonstr-pinterest-1" d="M9.64,0A9.64,9.64,0,0,0,6.127,18.616a9.216,9.216,0,0,1,.034-2.764c.175-.753,1.13-4.792,1.13-4.792A3.482,3.482,0,0,1,7,9.629c0-1.34.777-2.341,1.744-2.341A1.211,1.211,0,0,1,9.966,8.645a19.382,19.382,0,0,1-.8,3.209A1.4,1.4,0,0,0,10.6,13.6c1.714,0,3.03-1.807,3.03-4.414A3.805,3.805,0,0,0,9.6,5.261,4.172,4.172,0,0,0,5.247,9.444a3.745,3.745,0,0,0,.717,2.2.29.29,0,0,1,.067.277l-.268,1.093c-.043.177-.14.214-.323.129A4.321,4.321,0,0,1,3.483,9.408c0-3.041,2.209-5.834,6.37-5.834A5.658,5.658,0,0,1,15.8,9.142c0,3.323-2.094,6-5,6a2.578,2.578,0,0,1-2.209-1.107l-.6,2.292a10.726,10.726,0,0,1-1.2,2.527A9.641,9.641,0,1,0,9.64,0Z" fill="#fff" fill-rule="evenodd"/>
</svg>
