<?xml version="1.0" encoding="utf-8"?>
<!-- Generator: Adobe Illustrator 25.3.1, SVG Export Plug-In . SVG Version: 6.00 Build 0)  -->
<svg version="1.1" id="Layer_1" xmlns="http://www.w3.org/2000/svg" xmlns:xlink="http://www.w3.org/1999/xlink" x="0px" y="0px"
	 viewBox="0 0 177.58 63.39" style="enable-background:new 0 0 177.58 63.39;" xml:space="preserve">
<style type="text/css">
	.st0{display:none;}
	.st1{display:inline;}
	.st2{font-family:'JosefinSans-Regular';}
	.st3{font-size:39px;}
	.st4{font-size:30px;}
</style>
<g class="st0">
	<text transform="matrix(1 0 0 1 0 32.2009)" class="st1 st2 st3">Mutt</text>
	<text transform="matrix(1 0 0 1 90.9076 32.2007)" class="st1 st2 st3">Love</text>
	<text transform="matrix(1 0 0 1 48.6681 60.291)" class="st1 st2 st4">Rescue</text>
</g>
<g>
	<path d="M32.1,3.11V32.2h-3.74V13.95l-10.37,14.7H17.9L7.72,14.46V32.2H4.06V3.11H4.1l13.88,19.66L32.06,3.11H32.1z"/>
	<path d="M54.33,16.05V32.2h-3.28l-0.23-3.08c-0.55,1.09-1.39,1.98-2.54,2.67c-1.14,0.69-2.42,1.03-3.82,1.03
		c-1.48,0-2.7-0.45-3.65-1.35c-0.95-0.9-1.45-2.06-1.5-3.49V16.05h3.63V26.7c0.05,0.91,0.32,1.63,0.8,2.16
		c0.48,0.53,1.2,0.81,2.16,0.84c0.88,0,1.69-0.27,2.42-0.8c0.73-0.53,1.31-1.27,1.74-2.2c0.43-0.94,0.64-1.98,0.64-3.12v-7.53H54.33
		z"/>
	<path d="M65.87,8.96v7.14h4.41v2.89h-4.41V32.2H62.2V18.98h-2.96v-2.89h2.96V8.96H65.87z"/>
	<path d="M79.91,8.96v7.14h4.41v2.89h-4.41V32.2h-3.67V18.98h-2.96v-2.89h2.96V8.96H79.91z"/>
</g>
<g>
	<path d="M98.75,4v24.53h14.35v3.67H94.96V4H98.75z"/>
	<path d="M118.07,19.62c0.77-1.31,1.83-2.35,3.2-3.1c1.37-0.75,2.91-1.13,4.62-1.13c1.72,0,3.24,0.38,4.58,1.13
		c1.34,0.75,2.38,1.78,3.12,3.08c0.74,1.3,1.11,2.76,1.11,4.37c0,1.61-0.37,3.07-1.11,4.39s-1.79,2.35-3.14,3.1
		c-1.35,0.75-2.9,1.13-4.64,1.13c-1.69,0-3.21-0.36-4.56-1.07c-1.35-0.71-2.41-1.72-3.18-3.02c-0.77-1.3-1.15-2.81-1.15-4.52
		C116.92,22.39,117.3,20.94,118.07,19.62z M121.27,26.82c0.46,0.86,1.08,1.53,1.87,2.03c0.79,0.49,1.67,0.74,2.63,0.74
		c1.51,0,2.76-0.53,3.74-1.6c0.99-1.07,1.48-2.39,1.48-3.98c0-1.59-0.49-2.92-1.48-4c-0.99-1.08-2.24-1.62-3.74-1.62
		c-0.99,0-1.87,0.25-2.65,0.76c-0.78,0.51-1.4,1.19-1.85,2.05s-0.68,1.79-0.68,2.81S120.81,25.96,121.27,26.82z"/>
	<path d="M154.44,16.05l-8.62,16.61h-0.19l-8.97-16.61h4.33l4.88,10.3l4.52-10.3H154.44z"/>
	<path d="M169.45,28.07l1.68,2.69c-0.86,0.57-1.79,1.02-2.79,1.35c-1,0.33-1.97,0.49-2.91,0.49c-1.79,0-3.36-0.37-4.7-1.11
		c-1.34-0.74-2.37-1.76-3.1-3.06c-0.73-1.3-1.09-2.77-1.09-4.41c0-1.59,0.4-3.04,1.19-4.35c0.79-1.31,1.88-2.35,3.26-3.12
		c1.38-0.77,2.89-1.15,4.52-1.15c2.11,0,3.87,0.62,5.28,1.85c1.42,1.24,2.38,2.96,2.91,5.17l-12.79,4.48
		c0.47,0.81,1.1,1.44,1.89,1.89c0.79,0.46,1.7,0.68,2.71,0.68C166.87,29.47,168.18,29,169.45,28.07z M161.58,19.84
		c-0.96,1.04-1.44,2.37-1.44,3.98c0,0.39,0.01,0.69,0.04,0.9l9.4-3.47c-0.39-0.88-0.94-1.6-1.66-2.15
		c-0.72-0.55-1.61-0.82-2.67-0.82C163.76,18.28,162.54,18.8,161.58,19.84z"/>
</g>
<g>
	<path d="M63.73,60.29l-5.1-8.01c-0.16,0.02-0.4,0.03-0.72,0.03H54.7v7.98h-2.91V38.6h5.79c1.48,0,2.8,0.26,3.96,0.78
		c1.16,0.52,2.07,1.29,2.73,2.29c0.66,1.01,0.99,2.23,0.99,3.65c0,1.34-0.29,2.57-0.88,3.69c-0.59,1.12-1.5,1.97-2.71,2.55
		l5.46,8.73H63.73z M61.22,48.26c0.69-0.82,1.03-1.76,1.03-2.82c0-0.64-0.15-1.27-0.44-1.89c-0.29-0.62-0.75-1.13-1.38-1.54
		c-0.63-0.41-1.42-0.61-2.38-0.61H54.7v8.1h3.15C59.41,49.49,60.53,49.08,61.22,48.26z"/>
	<path d="M79.36,57.11l1.29,2.07c-0.66,0.44-1.38,0.79-2.15,1.03c-0.77,0.25-1.51,0.38-2.23,0.38c-1.38,0-2.58-0.28-3.61-0.85
		c-1.03-0.57-1.83-1.35-2.39-2.36c-0.56-1-0.84-2.13-0.84-3.39c0-1.22,0.3-2.33,0.92-3.34c0.61-1.01,1.44-1.81,2.5-2.4
		c1.06-0.59,2.22-0.89,3.48-0.89c1.62,0,2.97,0.48,4.06,1.43c1.09,0.95,1.83,2.28,2.23,3.98l-9.84,3.45
		c0.36,0.62,0.84,1.11,1.46,1.46c0.61,0.35,1.31,0.53,2.08,0.53C77.37,58.19,78.38,57.83,79.36,57.11z M73.3,50.78
		c-0.74,0.8-1.11,1.82-1.11,3.06c0,0.3,0.01,0.53,0.03,0.69l7.23-2.67c-0.3-0.68-0.73-1.23-1.27-1.65
		c-0.55-0.42-1.24-0.63-2.06-0.63C74.98,49.58,74.04,49.98,73.3,50.78z"/>
	<path d="M86.99,60.08c-0.83-0.32-1.5-0.79-2.02-1.41l1.2-1.62c0.5,0.48,1.02,0.85,1.57,1.11c0.55,0.26,1.1,0.39,1.64,0.39
		c0.66,0,1.2-0.13,1.62-0.39c0.42-0.26,0.63-0.66,0.63-1.2c0-0.42-0.13-0.76-0.39-1.02c-0.26-0.26-0.56-0.45-0.89-0.57
		c-0.33-0.12-0.88-0.3-1.67-0.54c-2.12-0.68-3.18-1.89-3.18-3.63c0-1.04,0.38-1.93,1.15-2.67s1.85-1.11,3.23-1.11
		c0.88,0,1.66,0.11,2.34,0.33c0.68,0.22,1.31,0.57,1.89,1.05l-1.11,1.71c-0.32-0.34-0.73-0.61-1.21-0.81
		c-0.49-0.2-0.96-0.31-1.4-0.33c-0.56,0-1.04,0.13-1.44,0.4s-0.6,0.64-0.6,1.1c0,0.38,0.13,0.7,0.39,0.94
		c0.26,0.25,0.53,0.43,0.81,0.54c0.28,0.11,0.83,0.29,1.65,0.55c1.02,0.34,1.82,0.78,2.39,1.32s0.85,1.27,0.85,2.19
		c0,1.2-0.42,2.19-1.26,2.97c-0.84,0.78-2.03,1.17-3.57,1.17C88.7,60.56,87.82,60.4,86.99,60.08z"/>
	<path d="M106.43,60.2c-0.77,0.26-1.56,0.39-2.36,0.39c-1.34,0-2.53-0.27-3.55-0.81c-1.03-0.54-1.83-1.3-2.4-2.29
		s-0.85-2.13-0.85-3.44c0-1.28,0.3-2.41,0.9-3.4c0.6-0.99,1.4-1.75,2.4-2.29s2.08-0.81,3.24-0.81c1.9,0,3.47,0.52,4.71,1.56
		l-1.41,1.83c-0.4-0.3-0.86-0.56-1.38-0.77c-0.52-0.21-1.08-0.31-1.68-0.31c-0.74,0-1.42,0.19-2.02,0.56
		c-0.61,0.37-1.09,0.88-1.44,1.51c-0.35,0.64-0.52,1.35-0.52,2.13c0,0.78,0.18,1.49,0.55,2.13c0.37,0.64,0.88,1.15,1.51,1.53
		c0.64,0.38,1.37,0.57,2.19,0.57c1.02,0,1.91-0.3,2.67-0.9l1.44,1.74C107.87,59.58,107.2,59.94,106.43,60.2z"/>
	<path d="M123.58,47.87v12.42h-2.52l-0.18-2.37c-0.42,0.84-1.07,1.53-1.95,2.06c-0.88,0.53-1.86,0.79-2.94,0.79
		c-1.14,0-2.08-0.35-2.81-1.04c-0.73-0.69-1.12-1.58-1.15-2.69v-9.18h2.79v8.19c0.04,0.7,0.24,1.25,0.61,1.67s0.92,0.62,1.67,0.64
		c0.68,0,1.3-0.21,1.86-0.62c0.56-0.41,1-0.97,1.33-1.69c0.33-0.72,0.5-1.52,0.5-2.4v-5.79H123.58z"/>
	<path d="M137.29,57.11l1.29,2.07c-0.66,0.44-1.38,0.79-2.15,1.03c-0.77,0.25-1.51,0.38-2.23,0.38c-1.38,0-2.58-0.28-3.62-0.85
		s-1.83-1.35-2.38-2.36c-0.56-1-0.84-2.13-0.84-3.39c0-1.22,0.3-2.33,0.92-3.34c0.61-1.01,1.44-1.81,2.5-2.4
		c1.06-0.59,2.22-0.89,3.48-0.89c1.62,0,2.97,0.48,4.07,1.43c1.09,0.95,1.83,2.28,2.23,3.98l-9.84,3.45
		c0.36,0.62,0.84,1.11,1.46,1.46c0.61,0.35,1.31,0.53,2.08,0.53C135.3,58.19,136.31,57.83,137.29,57.11z M131.23,50.78
		c-0.74,0.8-1.11,1.82-1.11,3.06c0,0.3,0.01,0.53,0.03,0.69l7.23-2.67c-0.3-0.68-0.72-1.23-1.27-1.65
		c-0.55-0.42-1.24-0.63-2.06-0.63C132.91,49.58,131.97,49.98,131.23,50.78z"/>
</g>
</svg>
